<?xml version="1.0" standalone="no"?>
<!DOCTYPE svg PUBLIC "-//W3C//DTD SVG 20010904//EN"
 "http://www.w3.org/TR/2001/REC-SVG-20010904/DTD/svg10.dtd">
<svg version="1.0" xmlns="http://www.w3.org/2000/svg"
 width="260.000000pt" height="260.000000pt" viewBox="0 0 260.000000 260.000000"
 preserveAspectRatio="xMidYMid meet">
<metadata>
Created by potrace 1.11, written by Peter Selinger 2001-2013
</metadata>
<g transform="translate(0.000000,260.000000) scale(0.100000,-0.100000)"
fill="#000000" stroke="none">
<path d="M1477 2427 c-29 -45 -79 -124 -111 -175 -33 -51 -60 -91 -61 -90 -7
8 -95 160 -148 258 -46 85 -43 83 -93 49 -24 -16 -44 -32 -44 -34 0 -2 17 -34
39 -72 21 -37 49 -88 63 -113 14 -25 45 -79 68 -120 40 -70 42 -76 28 -100 -8
-14 -227 -394 -488 -845 -260 -451 -506 -876 -546 -945 -40 -69 -71 -126 -70
-127 3 -3 187 -5 278 -4 44 1 47 3 53 34 13 58 112 300 171 412 75 145 177
305 277 435 90 116 382 413 400 407 21 -7 29 -63 32 -238 2 -97 9 -203 16
-235 7 -33 36 -104 65 -159 73 -143 87 -227 63 -375 -17 -107 -14 -180 10
-227 11 -23 25 -45 31 -48 10 -6 969 -9 975 -3 2 2 -53 100 -122 218 -137 235
-586 1007 -613 1055 -10 17 -88 152 -175 300 -163 280 -205 357 -205 375 0 8
104 174 237 376 13 21 11 23 -32 47 l-46 26 -52 -82z"/>
<path d="M573 340 l0 -90 53 0 c29 0 56 5 59 10 4 6 -11 10 -38 10 -34 0 -46
4 -49 18 -8 31 3 42 43 42 21 0 39 5 39 10 0 6 -17 10 -39 10 -28 0 -40 5 -43
18 -9 32 3 42 48 42 28 0 43 4 39 10 -3 6 -30 10 -59 10 l-52 0 -1 -90z"/>
<path d="M810 400 c0 -27 -2 -29 -27 -24 -35 7 -61 -12 -67 -50 -10 -54 47
-99 82 -64 9 9 12 9 12 0 0 -7 5 -12 10 -12 6 0 10 37 10 90 0 53 -4 90 -10
90 -5 0 -10 -13 -10 -30z m-7 -62 c15 -24 -6 -68 -33 -68 -26 0 -41 37 -27 68
12 26 44 26 60 0z"/>
<path d="M1303 345 c1 -47 6 -86 12 -88 15 -3 13 165 -2 170 -8 3 -11 -21 -10
-82z"/>
<path d="M1370 339 c0 -66 3 -90 12 -87 17 6 18 178 1 178 -10 0 -13 -25 -13
-91z"/>
<path d="M870 327 c0 -29 5 -58 12 -65 15 -15 51 -15 66 0 9 9 12 9 12 0 0 -7
5 -12 10 -12 6 0 10 29 10 66 0 48 -3 65 -12 62 -8 -3 -12 -19 -10 -42 4 -41
-11 -66 -38 -66 -22 0 -30 19 -30 71 0 21 -4 39 -10 39 -5 0 -10 -24 -10 -53z"/>
<path d="M1044 372 c-20 -13 -35 -51 -28 -76 7 -31 45 -50 79 -42 32 8 25 20
-12 21 -14 0 -31 9 -39 20 -21 31 8 69 47 63 31 -5 39 6 13 16 -21 8 -47 7
-60 -2z"/>
<path d="M1174 372 c-20 -13 -35 -53 -28 -75 13 -40 55 -57 98 -41 24 9 19 26
-5 19 -29 -9 -69 2 -69 20 0 11 12 15 49 15 46 0 50 2 46 23 -8 38 -59 61 -91
39z m64 -29 c2 -9 -8 -13 -32 -13 -20 0 -36 4 -36 9 0 22 60 25 68 4z"/>
</g>
</svg>
